<?xml version="1.0" encoding="UTF-8"?>
<svg width="32px" height="32px" viewBox="0 0 32 32" version="1.1" xmlns="http://www.w3.org/2000/svg" xmlns:xlink="http://www.w3.org/1999/xlink">
    <title>ic_public_ring</title>
    <g id="页面-1" stroke="none" stroke-width="1" fill="none" fill-rule="evenodd">
        <g id="ic_public_ring">
            <circle id="椭圆形" fill="#0A59F7" cx="16" cy="16" r="16"></circle>
            <path d="M18.5385839,21.4174574 C18.2446048,22.5106112 17.2465502,23.3152583 16.0605601,23.3152583 C14.8745701,23.3152583 13.8765154,22.5106112 13.5825364,21.4174574 Z M16.0605601,18.1835443 C17.4217694,18.1835443 18.5354097,19.2435133 18.6211132,20.5830836 L13.500007,20.5830836 C13.5857105,19.2435133 14.6993508,18.1835443 16.0605601,18.1835443 Z" id="形状结合" fill="#FFFFFF" opacity="0.6"></path>
            <path d="M16.0091385,8.5 C18.5119695,8.5 20.6279676,10.3533001 20.9578099,12.8343014 L21.707,18.475 L22.4470031,18.4757884 C22.9897266,18.4757281 23.4365872,18.8863117 23.4938091,19.4138289 L23.5,19.5285511 C23.5,20.1102413 23.0285762,20.5817175 22.4470031,20.5817822 L9.55299689,20.5832162 C9.01027341,20.5832766 8.56341281,20.1726929 8.50619092,19.6451757 L8.5,19.5303364 C8.5,18.9487634 8.97142383,18.4772871 9.55299689,18.4772224 L10.31,18.477 L11.060467,12.8343014 C11.3803141,10.428482 13.3797053,8.61289762 15.782713,8.50507141 Z" id="形状结合" fill="#FFFFFF"></path>
        </g>
    </g>
</svg>