<svg width="32.000000" height="32.000000" viewBox="0 0 32 32" fill="none" xmlns="http://www.w3.org/2000/svg" xmlns:xlink="http://www.w3.org/1999/xlink">
	<desc>
			Created with Pixso.
	</desc>
	<defs/>
	<circle id="椭圆 2" cx="16.000000" cy="16.000000" r="16.000000" fill="#5291FF" fill-opacity="1.000000"/>
	<path id="bell_fill" d="M22.43 17.8Q22.51 18.05 22.67 18.27L23.62 19.44Q23.76 19.61 23.82 19.81Q23.88 20 23.86 20.23Q23.84 20.46 23.74 20.65Q23.65 20.82 23.5 20.97Q23.39 21.07 23.26 21.14Q23.03 21.27 22.73 21.27L9.26 21.27Q8.96 21.27 8.73 21.15Q8.6 21.08 8.48 20.97Q8.33 20.82 8.24 20.64Q8.15 20.45 8.12 20.24Q8.1 20.06 8.14 19.9Q8.19 19.66 8.35 19.44L9.3 18.27Q9.46 18.05 9.54 17.8Q9.61 17.58 9.61 17.32L9.61 13.78Q9.61 12.55 10.04 11.48Q10.34 10.72 10.86 10.04Q11.41 9.34 12.09 8.82Q12.99 8.15 14.12 7.8Q14.17 7.59 14.28 7.4Q14.47 7.07 14.8 6.82Q15.07 6.62 15.37 6.52Q15.67 6.43 16 6.43Q16.37 6.43 16.7 6.55Q16.95 6.64 17.17 6.81Q17.47 7.02 17.65 7.32Q17.79 7.53 17.86 7.78Q19.04 8.12 19.95 8.82Q20.11 8.95 20.27 9.09Q20.97 9.7 21.44 10.46Q21.66 10.81 21.83 11.19Q22.1 11.82 22.24 12.47Q22.36 13.07 22.36 13.69L22.36 17.32Q22.36 17.58 22.43 17.8ZM13.7 22.32Q13.73 22.29 13.82 22.29L18.2 22.29Q18.28 22.29 18.31 22.32Q18.32 22.34 18.33 22.35Q18.35 22.38 18.35 22.43Q18.32 22.88 18.15 23.25Q17.96 23.65 17.62 23.98Q17.3 24.27 16.92 24.43Q16.5 24.61 16 24.61Q15.55 24.61 15.15 24.46Q14.74 24.3 14.39 23.99Q14.06 23.68 13.87 23.3Q13.68 22.91 13.64 22.45L13.64 22.43Q13.66 22.34 13.7 22.32Z" fill="#FFFFFF" fill-opacity="1.000000" fill-rule="evenodd"/>
</svg>
